<?xml version="1.0" encoding="utf-8"?>
<!-- Generator: Adobe Illustrator 22.0.0, SVG Export Plug-In . SVG Version: 6.00 Build 0)  -->
<svg version="1.1" id="Layer_1" xmlns="http://www.w3.org/2000/svg" xmlns:xlink="http://www.w3.org/1999/xlink" x="0px" y="0px"
	 viewBox="0 0 9 9" style="enable-background:new 0 0 9 9;" xml:space="preserve">
<style type="text/css">
	.st0{opacity:0.75;}
	.st1{fill:#FFFFFF;}
</style>
<g id="Icons" class="st0">
	<path id="search" class="st1" d="M1,8.9l2.4-2.4c0,0,0.1-0.1,0.1-0.2C4.1,6.7,4.7,7,5.5,7C7.4,7,9,5.4,9,3.5C9,1.6,7.4,0,5.5,0
		C3.6,0,2,1.6,2,3.5c0,0.7,0.2,1.4,0.6,2c-0.1,0-0.1,0.1-0.2,0.1L0.1,8C-0.1,8.2,0,8.5,0.2,8.8S0.8,9,1,8.9z M3.3,3.5
		c0-1.2,1-2.2,2.2-2.2c1.2,0,2.2,1,2.2,2.2c0,1.2-1,2.2-2.2,2.2C4.3,5.7,3.3,4.7,3.3,3.5z"/>
</g>
<g id="Guides">
</g>
</svg>
